<?xml version="1.0" encoding="utf-8"?>
<!-- Generator: Adobe Illustrator 16.0.0, SVG Export Plug-In . SVG Version: 6.00 Build 0)  -->
<!DOCTYPE svg PUBLIC "-//W3C//DTD SVG 1.1//EN" "http://www.w3.org/Graphics/SVG/1.1/DTD/svg11.dtd">
<svg xmlns="http://www.w3.org/2000/svg" xmlns:xlink="http://www.w3.org/1999/xlink" version="1.1" id="Layer_1" x="0px" y="0px" width="48px" height="48px" viewBox="0 0 512 512" enable-background="new 0 0 512 512" xml:space="preserve">
<g>
	<g>
		<g>
			<path fill="#30bced" d="M424.3,180c-1-1.2-1.5-2.8-1.5-4.3c-14.8-26.1-15.7-58-30.5-84.1c-41.7,23.4-70.2,65.1-97.4,103.1     c-16.4,22.9-31.1,46.4-44.6,71.1c-13.6,24.8-26.8,49.9-42,73.8c-2.2,3.4-7.9,5-10.3,0.7c-7.2-13.3-15.3-26.2-24.6-38.2     c-8-10.3-17.1-19.5-25.3-29.6c-12.7-15.7-26.3-34.5-43.9-45.4c-6.4,21-13.9,41.8-17.2,63.6c24.6,15.9,43.4,38.9,61.5,61.6     c21.2,26.6,43.1,52,66.9,76.3c15.4-20.1,26-43.5,38.8-65.3c15.1-25.7,32.7-49.4,51.4-72.6c18.7-23.2,40.3-43.7,62-63.9     c10.2-9.5,22.2-17.3,33.1-26c8.2-6.6,16.2-13.4,23.7-20.7C424.4,180.2,424.4,180.1,424.3,180z"/>
		</g>
	</g>
</g>
</svg>
